<?xml version="1.0" encoding="UTF-8"?>
<svg version="1.1" xmlns="http://www.w3.org/2000/svg" width="400" height="400">
<path d="M0 0 C4.29 0 8.58 0 13 0 C13.06993164 0.88969482 13.13986328 1.77938965 13.21191406 2.69604492 C14.6994566 43.12083001 14.6994566 43.12083001 32 78 C38.41407983 82.98918175 46.04115887 85.58181435 53.5625 88.4375 C54.83188881 88.92667512 56.10092994 89.41675336 57.36962891 89.90771484 C59.8341626 90.86070598 62.30009768 91.80969955 64.76708984 92.75634766 C72.71165219 95.81250236 80.60042588 99.00715057 88.46875 102.25390625 C89.44344238 102.65528809 90.41813477 103.05666992 91.42236328 103.47021484 C93.33336712 104.25806544 95.24327515 105.04858154 97.15185547 105.84228516 C98.03760254 106.20757324 98.92334961 106.57286133 99.8359375 106.94921875 C100.69751465 107.30701416 101.5590918 107.66480957 102.44677734 108.03344727 C104.94204321 108.97805977 107.42178932 109.64373317 110 110.3203125 C113.52689786 111.47915037 113.83334958 111.69422287 115.7265625 115.16796875 C116.06352769 116.49887953 116.36032515 117.84034883 116.625 119.1875 C117.00592526 120.7387459 117.38885155 122.28950136 117.7734375 123.83984375 C117.96776367 124.67499512 118.16208984 125.51014648 118.36230469 126.37060547 C119.49552754 131.04319738 120.88799583 135.63996344 122.25 140.25 C122.53858887 141.24306152 122.82717773 142.23612305 123.12451172 143.25927734 C125.9216143 152.85859602 128.89056112 162.40333366 131.89160156 171.94042969 C138.42345608 192.77348489 138.42345608 192.77348489 138.25 199.625 C138.2396875 200.79804688 138.229375 201.97109375 138.21875 203.1796875 C138.05825257 205.98266047 137.78443537 208.56480482 137.34375 211.3203125 C136.0001126 218.76936405 136.0001126 218.76936405 138.13037109 225.72509766 C141.3157265 229.12766035 145.01653444 231.61927976 149 234 C154.83760397 231.8498505 159.60015907 229.37491481 163 224 C163.39417536 219.7680294 163.10043257 215.99377114 162.53515625 211.8046875 C161.00715054 199.51246307 162.58296622 189.21339278 166.4375 177.5625 C166.89451438 176.1296515 167.34913965 174.69603905 167.80151367 173.26171875 C168.49953829 171.04899593 169.19879148 168.83677346 169.9052887 166.6267395 C172.14490577 159.61380689 174.20972248 152.55561926 176.23916626 145.47949219 C176.80844416 143.5140032 177.39252712 141.55350869 177.98120117 139.59375 C179.5646783 134.26955487 181.08102106 129.06064761 181.93359375 123.56640625 C182.68657447 119.07187743 183.47553268 115.86011419 186 112 C191.27421979 108.27341671 197.67719385 106.76060375 203.80322266 104.98828125 C209.57866522 103.20280764 215.14513252 100.88003199 220.75 98.625 C223.12567366 97.6846088 225.5019787 96.74581111 227.87890625 95.80859375 C229.64451904 95.11032471 229.64451904 95.11032471 231.44580078 94.39794922 C234.96760662 93.01274107 238.49649719 91.64713195 242.02734375 90.28515625 C244.24748483 89.41949906 246.46754061 88.55362304 248.6875 87.6875 C249.69586914 87.30352051 250.70423828 86.91954102 251.74316406 86.52392578 C263.4640563 81.91745295 271.07164228 76.68373813 276.3359375 65.046875 C284.39572592 44.43335553 285.28398274 21.83177256 287 0 C291.29 0 295.58 0 300 0 C303.95605444 9.08427315 306.68025955 18.3842374 309 28 C309.16951172 28.70141113 309.33902344 29.40282227 309.51367188 30.12548828 C312.07621093 41.37248281 312.30798819 52.7033323 312.375 64.1875 C312.38294586 64.90035156 312.39089172 65.61320312 312.39907837 66.34765625 C312.52033737 80.51233776 310.62318044 93.89512079 305.6875 107.25 C305.22911743 108.5174707 305.22911743 108.5174707 304.76147461 109.81054688 C298.94806409 125.55425785 290.60487154 138.85786588 279 151 C292.31142625 152.75868368 292.31142625 152.75868368 304.62890625 149.0078125 C307.51168709 146.17834055 309.74907436 143.35235723 312 140 C312.76570313 138.93136719 313.53140625 137.86273438 314.3203125 136.76171875 C322.6155515 124.34859229 324.60317522 111.80519934 322.61328125 97.15234375 C321.80571675 93.28249467 320.62662618 89.60181512 319 86 C324.84550475 86.85963305 328.31589351 91.7456579 332 96 C341.87365133 109.7146102 345.91166926 125.32287538 343.5703125 142.07421875 C339.68005667 160.06064846 328.26261077 172.99254917 316 186 C315.34644531 186.69609375 314.69289063 187.3921875 314.01953125 188.109375 C310.01233443 192.25411862 305.67732948 195.6448838 301 199 C300.18789063 199.60585937 299.37578125 200.21171875 298.5390625 200.8359375 C296.70919498 202.19358114 294.86022371 203.52573489 292.99609375 204.8359375 C289.95309215 206.97249603 289.95309215 206.97249603 287.09765625 209.4765625 C278.78249051 216.20013804 271.79713947 216.52601383 261.32983398 216.39794922 C245.93647143 216.53952242 231.21857289 221.33006192 216.50865173 225.50088501 C211.20006202 227 211.20006202 227 209 227 C208.74992188 227.87785156 208.49984375 228.75570312 208.2421875 229.66015625 C206.94596971 233.14527012 205.38414988 235.50060516 203.125 238.4375 C200.84626183 241.47171173 198.63845002 244.42121046 196.8125 247.75 C195 251 195 251 192.4375 253.80078125 C188.48268084 259.27980088 189.21698058 265.9484978 189.1875 272.4375 C189.16236328 273.74138672 189.13722656 275.04527344 189.11132812 276.38867188 C189.05264535 279.59275157 189.01622466 282.79547066 189 286 C187.31583984 286.87011719 187.31583984 286.87011719 185.59765625 287.7578125 C181.04043406 290.1267538 176.51323471 292.54840579 172 295 C171.03578125 295.52207031 170.0715625 296.04414063 169.078125 296.58203125 C163.00459442 300.21567799 160.14729687 304.7574277 157 311 C156.43925781 312.093125 155.87851563 313.18625 155.30078125 314.3125 C153.84167577 317.19669917 152.40939041 320.09125809 151 323 C150.34 323 149.68 323 149 323 C148.72325439 322.45061768 148.44650879 321.90123535 148.16137695 321.33520508 C146.88842741 318.82242123 145.6006429 316.31752683 144.3125 313.8125 C143.87744141 312.94818359 143.44238281 312.08386719 142.99414062 311.19335938 C139.156661 303.77423209 135.02089849 299.35489117 127.8125 295 C126.76707031 294.360625 125.72164062 293.72125 124.64453125 293.0625 C120.21589595 290.47966535 115.60290837 288.25213113 111 286 C111.01740234 284.81410278 111.01740234 284.81410278 111.03515625 283.60424805 C111.06493278 279.96433319 111.03284091 276.32736753 111 272.6875 C111.01933594 271.44419922 111.03867188 270.20089844 111.05859375 268.91992188 C110.92686073 260.55487537 109.38480163 255.76951692 103.97119141 249.34155273 C102.09236759 247.10972227 100.72933337 244.94937692 99.375 242.375 C97.23645288 238.32416843 94.76272538 234.59814935 92.13671875 230.84765625 C91 229 91 229 91 227 C89.9790625 226.78085938 88.958125 226.56171875 87.90625 226.3359375 C86.43740004 226.01608368 84.96866017 225.69572413 83.5 225.375 C82.69828369 225.20186279 81.89656738 225.02872559 81.07055664 224.8503418 C76.4535132 223.83365241 71.89080596 222.71552205 67.33984375 221.43359375 C56.66724078 218.47894065 47.16485798 216.73306465 36.0625 216.8125 C23.64256341 216.79525275 16.38011854 212.79026794 7 205 C6.02933594 204.25363281 5.05867188 203.50726563 4.05859375 202.73828125 C2.41035103 201.45743309 0.78195208 200.1504179 -0.8203125 198.8125 C-2.9518553 197.0400343 -5.14729712 195.3989758 -7.375 193.75 C-24.73902993 180.25830241 -40.56024296 161.28822166 -44 139 C-45.22164802 123.49908907 -41.65853408 108.37645868 -31.71875 96.20703125 C-28.59136633 92.68872462 -25.34389335 89.31204675 -22 86 C-20.515 86.495 -20.515 86.495 -19 87 C-19.74869792 88.62760417 -20.49739583 90.25520833 -21.24609375 91.8828125 C-25.37117312 103.46723229 -23.94046224 117.96071856 -19 129 C-16.66359619 133.30135172 -13.98492379 137.12695628 -11 141 C-10.3503125 141.98097656 -9.700625 142.96195313 -9.03125 143.97265625 C-5.98266787 147.89936258 -3.48771057 150.59691607 1.59765625 151.42089844 C8.0831374 151.85484708 14.53018955 151.5517419 21 151 C20.38253906 150.37996094 19.76507813 149.75992188 19.12890625 149.12109375 C12.06726444 141.73700255 6.92614731 133.92380612 2 125 C1.51789062 124.15953125 1.03578125 123.3190625 0.5390625 122.453125 C-2.24792946 117.30517807 -4.21845612 111.89523918 -6.125 106.375 C-6.48791138 105.34669067 -6.48791138 105.34669067 -6.8581543 104.29760742 C-11.2284658 91.10876539 -12.53050864 77.98840497 -12.375 64.1875 C-12.37034729 63.44576538 -12.36569458 62.70403076 -12.36090088 61.93981934 C-12.21159912 41.57462173 -10.08088458 18.15159278 0 0 Z M74 174 C71.95465946 188.76407833 71.95465946 188.76407833 76.3671875 202.125 C79.20494854 203.79018985 81.97164402 205.09775139 85.06201172 206.22216797 C88.48097264 207.59440399 91.51137107 209.61263534 94.625 211.5625 C95.88385631 212.32549703 97.14425213 213.08596041 98.40625 213.84375 C99.01082031 214.20855469 99.61539063 214.57335937 100.23828125 214.94921875 C101.88738655 215.93283145 103.55257435 216.8893387 105.21875 217.84375 C110.68127264 221.07427414 114.23682572 223.80586553 117.1953125 229.49609375 C117.46085937 229.99238281 117.72640625 230.48867187 118 231 C118.33 231 118.66 231 119 231 C120.21699842 219.57373703 117.90832787 213.91140151 111 205 C110.31035156 203.87722656 109.62070313 202.75445312 108.91015625 201.59765625 C102.62066729 191.39810262 94.18322137 185.58506283 84.10742188 179.32324219 C82.21846286 178.137172 80.38102347 176.90115396 78.546875 175.6328125 C76.22360607 173.82009565 76.22360607 173.82009565 74 174 Z M199 191 C194.56289481 195.57921547 191.22372904 200.73158943 188.05908203 206.24072266 C186.66201683 208.5614354 184.9545884 210.58685689 183.25 212.6875 C179.56644597 218.13743667 180.5168987 224.71073678 181 231 C181.556875 230.278125 182.11375 229.55625 182.6875 228.8125 C187.61003263 222.82563599 192.67949326 219.16495938 199.3125 215.3125 C200.62589355 214.51235474 200.62589355 214.51235474 201.96582031 213.69604492 C206.1835972 211.13885525 210.32183039 208.79008558 214.87109375 206.875 C221.30227693 204.0362705 221.30227693 204.0362705 226 199 C227.90464764 190.8275068 226.98116695 182.25501044 226 174 C218.04446543 174 205.20403307 185.90408554 199 191 Z M122 255 C122.33 258.3 122.66 261.6 123 265 C127.29 266.65 131.58 268.3 136 270 C135.814375 267.586875 135.814375 267.586875 135.625 265.125 C135.55539063 264.22007812 135.48578125 263.31515625 135.4140625 262.3828125 C135.20431868 259.82058097 135.20431868 259.82058097 133 258 C131.14516546 257.39286197 129.26578615 256.85868948 127.375 256.375 C126.37210938 256.11460937 125.36921875 255.85421875 124.3359375 255.5859375 C123.56507813 255.39257812 122.79421875 255.19921875 122 255 Z M170.375 257 C168.60125 257.66 166.8275 258.32 165 259 C164.34 262.96 163.68 266.92 163 271 C164.5675 270.195625 166.135 269.39125 167.75 268.5625 C170.9369142 266.92710982 173.48669257 265.87832686 177 265 C177.33 261.7 177.66 258.4 178 255 C175.18856084 255 173.0042796 256.0216634 170.375 257 Z " fill="#F58122" transform="translate(50,0)"/>
<path d="M0 0 C0.25523437 0.99257812 0.51046875 1.98515625 0.7734375 3.0078125 C1.97259492 7.18491252 3.68920935 10.99218587 5.625 14.875 C6.14416992 15.92010742 6.14416992 15.92010742 6.67382812 16.98632812 C9.65519938 22.76105622 13.29380069 27.49406449 18 32 C17.505 32.99 17.505 32.99 17 34 C14.05058996 34.37882331 11.14933363 34.65470064 8.1875 34.875 C-2.21038315 35.80265237 -13.98111997 37.28405329 -21.25 45.5625 C-24.67523988 52.29064977 -24.53577657 58.04580791 -22.5 65.25 C-18.72585745 76.24929902 -13.25043472 86.08866552 -6.6015625 95.57421875 C-5 98 -5 98 -4 101 C-4.78246094 100.84144531 -5.56492187 100.68289063 -6.37109375 100.51953125 C-24.71149413 97.89383346 -40.66823927 100.42919914 -55.85546875 111.33203125 C-73.09387649 125.02019484 -81.44742007 146.95158517 -87.2734375 167.45068359 C-88.46953737 171.64748292 -89.73914115 175.82228728 -91 180 C-93.31 180 -95.62 180 -98 180 C-101.49262666 159.46758873 -103.98189485 138.76295259 -106.25 118.0625 C-106.37000366 117.00192383 -106.37000366 117.00192383 -106.49243164 115.91992188 C-107.01646164 110.921295 -107.05886838 106.01852909 -107 101 C-103.80750523 103.96647745 -101.5407013 107.04963636 -99.25 110.75 C-98.63640625 111.73484375 -98.0228125 112.7196875 -97.390625 113.734375 C-96.93171875 114.48203125 -96.4728125 115.2296875 -96 116 C-94.36170056 113.54255084 -93.17764126 111.35439124 -91.9765625 108.68359375 C-91.595 107.83603516 -91.2134375 106.98847656 -90.8203125 106.11523438 C-90.42585938 105.23158203 -90.03140625 104.34792969 -89.625 103.4375 C-89.23828125 102.58091797 -88.8515625 101.72433594 -88.453125 100.84179688 C-86.09567545 95.58500082 -83.88755821 90.29201892 -81.81005859 84.91821289 C-81 83 -81 83 -80 82 C-77.81620888 81.70072876 -75.62764822 81.43601099 -73.4375 81.1875 C-66.5468571 80.24021202 -61.41008044 78.97007006 -56.0625 74.3125 C-53.43671872 68.59756427 -53.54287506 63.49267256 -55.5 57.5625 C-57.77650723 51.91899081 -61.32603531 43.83698235 -67 41 C-66.36304238 37.82236871 -65.26065008 35.50167661 -63.5625 32.75 C-63.03269531 31.88890625 -62.50289062 31.0278125 -61.95703125 30.140625 C-61.31121094 29.10421875 -60.66539062 28.0678125 -60 27 C-59.14946969 25.61995797 -58.29922834 24.23973782 -57.44921875 22.859375 C-56.55001177 21.40592036 -55.65027135 19.95279561 -54.75 18.5 C-54.31373291 17.79327148 -53.87746582 17.08654297 -53.42797852 16.35839844 C-49.01306737 9.27737866 -49.01306737 9.27737866 -45.33300781 8.26977539 C-44.21764648 8.04797607 -43.10228516 7.82617676 -41.953125 7.59765625 C-40.71433594 7.34693359 -39.47554688 7.09621094 -38.19921875 6.83789062 C-36.88286643 6.57915256 -35.56645994 6.32068993 -34.25 6.0625 C-31.71344096 5.55388739 -29.17698233 5.04477378 -26.640625 4.53515625 C-24.75053711 4.16028076 -24.75053711 4.16028076 -22.82226562 3.77783203 C-17.87081643 2.77021086 -12.94188739 1.66818215 -8.01464844 0.54858398 C-5.25729462 0.04682062 -2.79272505 -0.1086348 0 0 Z " fill="#F58022" transform="translate(310,220)"/>
<path d="M0 0 C8.98546028 0.67414039 17.77144559 2.21642128 26.60522461 3.9440918 C28.32903236 4.27346832 30.05608709 4.58627706 31.78588867 4.88256836 C48.03809031 7.67767015 48.03809031 7.67767015 52.4140625 13.86328125 C53.32308312 15.5510176 54.19025553 17.26244817 55 19 C55.74810676 20.21327473 56.5105219 21.41795726 57.29296875 22.609375 C58.23076172 24.16398437 58.23076172 24.16398437 59.1875 25.75 C61.70004202 29.90516115 64.28375505 33.97682565 67 38 C65.54075059 41.17133907 63.72427186 43.78027726 61.625 46.5625 C57.11892014 52.97282281 53.49250681 59.77565334 53.9375 67.8125 C54.73934273 72.1224047 56.38673679 75.42264941 60 78 C65.08837571 80.3005954 69.77243175 81.02480628 75.3125 81 C77.66601562 81.19921875 77.66601562 81.19921875 80 82 C81.36474609 84.07543945 81.36474609 84.07543945 82.4609375 86.80078125 C82.87545166 87.79674316 83.28996582 88.79270508 83.71704102 89.81884766 C84.14041748 90.86862793 84.56379395 91.9184082 85 93 C85.88672229 95.03742937 86.77864191 97.07260479 87.67578125 99.10546875 C88.55563879 101.13239983 89.43454318 103.15974491 90.3125 105.1875 C90.76689453 106.23486328 91.22128906 107.28222656 91.68945312 108.36132812 C92.79382004 110.90718448 93.8973235 113.45341115 95 116 C98.41215385 111.90098401 101.02190287 107.64506873 103.6328125 103.01171875 C104.08398438 102.34785156 104.53515625 101.68398438 105 101 C105.66 101 106.32 101 107 101 C107.20683936 108.18296687 106.40259163 115.14051771 105.5390625 122.265625 C105.31311905 124.17030548 105.31311905 124.17030548 105.08261108 126.11346436 C104.76438389 128.79328787 104.44299072 131.47270578 104.11914062 134.15185547 C103.70839479 137.55096714 103.30422826 140.95081948 102.90232277 144.35098648 C102.51344102 147.63539776 102.11987756 150.91924159 101.7265625 154.203125 C101.58376862 155.40664612 101.44097473 156.61016724 101.29385376 157.85015869 C100.39385926 165.27218368 99.29650045 172.63681829 98 180 C95.69 180 93.38 180 91 180 C90.76925781 179.21052979 90.53851563 178.42105957 90.30078125 177.60766602 C82.3677085 150.68656414 73.64188257 121.31334822 48 106 C38.95583683 101.20044409 30.51848802 99.67562055 20.375 99.8125 C19.00214844 99.8134668 19.00214844 99.8134668 17.6015625 99.81445312 C12.96092434 99.84463069 8.56347854 100.05243386 4 101 C5.59731087 97.69575888 7.39534596 94.54127874 9.25 91.375 C9.87132813 90.30378906 10.49265625 89.23257813 11.1328125 88.12890625 C12.25060114 86.25579181 13.40181332 84.40116227 14.6171875 82.58984375 C18.03110677 77.43358744 20.13195074 72.25224709 21.9375 66.375 C22.16131348 65.67028564 22.38512695 64.96557129 22.61572266 64.23950195 C24.3497485 58.18737019 24.53621395 52.82663367 21.4375 47.125 C20.963125 46.42375 20.48875 45.7225 20 45 C20 44.34 20 43.68 20 43 C7.53384528 36.62461494 -4.09718637 34.76124916 -18 34 C-16.61692092 30.96397276 -14.96812745 28.66045196 -12.8125 26.125 C-6.71167604 18.41600906 -2.47491516 9.48918692 0 0 Z " fill="#F58022" transform="translate(90,220)"/>
<path d="M0 0 C0.66 0 1.32 0 2 0 C7.74533524 53.55948124 7.74533524 53.55948124 9.69946289 80.34838867 C9.90047664 82.79076284 10.15272669 85.22943754 10.45483398 87.66137695 C11.44081827 96.18554454 11.44081827 96.18554454 9.12890625 100.45703125 C8.28199219 101.23433594 7.43507812 102.01164062 6.5625 102.8125 C5.29599609 104.02873047 5.29599609 104.02873047 4.00390625 105.26953125 C3.34261719 105.84058594 2.68132812 106.41164063 2 107 C-2.91412401 104.81578903 -6.26899984 101.63459985 -9 97 C-9.62600501 93.31135115 -9.14281236 89.95753568 -8.59375 86.27734375 C-8.34395138 84.13277766 -8.09530148 81.98807754 -7.84765625 79.84326172 C-7.70537598 78.72425476 -7.5630957 77.6052478 -7.41650391 76.45233154 C-6.71647381 70.6498986 -6.26560014 64.82756626 -5.78125 59.00390625 C-5.57061325 56.60728046 -5.35836332 54.21079593 -5.14453125 51.81445312 C-4.82057906 48.17306338 -4.49728696 44.53162838 -4.17724609 40.88989258 C-2.97712883 27.2342336 -1.72913359 13.60002208 0 0 Z " fill="#ED7C21" transform="translate(199,125)"/>
</svg>
